<?xml version="1.0" encoding="UTF-8"?>
<svg width="17px" height="16px" viewBox="0 0 17 16" version="1.1" xmlns="http://www.w3.org/2000/svg" xmlns:xlink="http://www.w3.org/1999/xlink">
    <!-- Generator: Sketch 46.2 (44496) - http://www.bohemiancoding.com/sketch -->
    <title>burger icon</title>
    <desc>Created with Sketch.</desc>
    <defs>
        <path d="M0,1 C0,0.44771525 0.454708934,0 0.999960201,0 L16.0000398,0 C16.5523026,0 17,0.443864822 17,1 C17,1.55228475 16.5452911,2 16.0000398,2 L0.999960201,2 C0.447697432,2 0,1.55613518 0,1 Z M0,8 C0,7.44771525 0.454708934,7 0.999960201,7 L16.0000398,7 C16.5523026,7 17,7.44386482 17,8 C17,8.55228475 16.5452911,9 16.0000398,9 L0.999960201,9 C0.447697432,9 0,8.55613518 0,8 Z M0,15 C0,14.4477153 0.446311399,14 0.997544646,14 L8.00245535,14 C8.55338405,14 9,14.4438648 9,15 C9,15.5522847 8.5536886,16 8.00245535,16 L0.997544646,16 C0.446615951,16 0,15.5561352 0,15 Z" id="path-1"></path>
    </defs>
    <g id="Page-1" stroke="none" stroke-width="1" fill="none" fill-rule="evenodd">
        <g id="01_istorines_asmenybes_mobile" transform="translate(-282.000000, -19.000000)">
            <g id="header" transform="translate(20.000000, 10.000000)">
                <g id="Icons/Menu" transform="translate(262.000000, 9.000000)">
                    <mask id="mask-2" fill="white">
                        <use xlink:href="#path-1"></use>
                    </mask>
                    <use id="Combined-Shape" fill="#262628" fill-rule="evenodd" xlink:href="#path-1"></use>
                    <g id="↳Tint/Backgroud" mask="url(#mask-2)" fill-rule="evenodd" fill="#262628">
                        <g transform="translate(0.000000, -1.000000)" id="Color">
                            <rect x="0" y="0" width="18" height="18"></rect>
                        </g>
                    </g>
                </g>
            </g>
        </g>
    </g>
</svg>