<?xml version="1.0" encoding="UTF-8"?>
<svg width="14px" height="14px" viewBox="0 0 14 14" version="1.1" xmlns="http://www.w3.org/2000/svg" xmlns:xlink="http://www.w3.org/1999/xlink">
    <!-- Generator: Sketch 46.2 (44496) - http://www.bohemiancoding.com/sketch -->
    <title>close icon</title>
    <desc>Created with Sketch.</desc>
    <defs>
        <path d="M289.267297,25.6815108 L284.312881,30.6359268 C283.925068,31.0237405 283.927026,31.6549476 284.31755,32.0454719 C284.710797,32.4387188 285.339149,32.4380863 285.727095,32.0501404 L290.681511,27.0957244 L295.635927,32.0501404 C296.023741,32.4379541 296.654948,32.4359961 297.045472,32.0454719 C297.438719,31.6522249 297.438086,31.0238728 297.05014,30.6359268 L292.095724,25.6815108 L297.05014,20.7270948 C297.437954,20.3392811 297.435996,19.7080741 297.045472,19.3175498 C296.652225,18.9243028 296.023873,18.9249353 295.635927,19.3128813 L290.681511,24.2672973 L285.727095,19.3128813 C285.339281,18.9250676 284.708074,18.9270255 284.31755,19.3175498 C283.924303,19.7107967 283.924935,20.3391489 284.312881,20.7270948 L289.267297,25.6815108 Z" id="path-1"></path>
    </defs>
    <g id="Page-1" stroke="none" stroke-width="1" fill="none" fill-rule="evenodd">
        <g id="mobile_navigation" transform="translate(-284.000000, -19.000000)">
            <mask id="mask-2" fill="white">
                <use xlink:href="#path-1"></use>
            </mask>
            <use id="close-icon" fill="#262628" xlink:href="#path-1"></use>
        </g>
    </g>
</svg>