<?xml version="1.0" encoding="UTF-8"?>
<svg width="28px" height="28px" viewBox="0 0 28 28" version="1.1" xmlns="http://www.w3.org/2000/svg" xmlns:xlink="http://www.w3.org/1999/xlink">
    <!-- Generator: Sketch 46.2 (44496) - http://www.bohemiancoding.com/sketch -->
    <title>Group 15</title>
    <desc>Created with Sketch.</desc>
    <defs></defs>
    <g id="Page-1" stroke="none" stroke-width="1" fill="none" fill-rule="evenodd">
        <g id="01_istorines_asmenybes_desktop" transform="translate(-1162.000000, -1948.000000)">
            <g id="footer" transform="translate(0.000000, 1930.000000)">
                <g id="Group-13" transform="translate(1162.000000, 18.000000)">
                    <g id="Group-15">
                        <rect id="Rectangle-7" stroke="#004498" x="0.5" y="0.5" width="27" height="27" rx="4"></rect>
                        <path d="M17.5779027,7.41454843 L15.8650958,7.41176471 C13.9408547,7.41176471 12.6973252,8.69844176 12.6973252,10.6898683 L12.6973252,12.2012982 L10.9751796,12.2012982 C10.8263812,12.2012982 10.7058824,12.3229494 10.7058824,12.4730361 L10.7058824,14.6628872 C10.7058824,14.812974 10.8265102,14.9345211 10.9751796,14.9345211 L12.6973252,14.9345211 L12.6973252,20.4602575 C12.6973252,20.6103442 12.817824,20.7318653 12.9666482,20.7318653 L15.2135352,20.7318653 C15.3623336,20.7318653 15.4828582,20.6101881 15.4828582,20.4602575 L15.4828582,14.9345211 L17.4964351,14.9345211 C17.6452335,14.9345211 17.7657323,14.812974 17.7657323,14.6628872 L17.7665578,12.4730361 C17.7665578,12.4009716 17.7381293,12.3319509 17.6876957,12.2809594 C17.6372621,12.2299679 17.5685641,12.2012982 17.4971058,12.2012982 L15.4828582,12.2012982 L15.4828582,10.9200325 C15.4828582,10.304206 15.6283804,9.99159681 16.4238379,9.99159681 L17.5776189,9.99118055 C17.7263142,9.99118055 17.846813,9.86950337 17.846813,9.71957272 L17.846813,7.68613024 C17.846813,7.53635569 17.7264431,7.41480859 17.5779027,7.41454843" id="Fill-1" fill="#004597"></path>
                    </g>
                </g>
            </g>
        </g>
    </g>
</svg>