<?xml version="1.0" encoding="UTF-8"?>
<svg width="28px" height="19px" viewBox="0 0 28 19" version="1.1" xmlns="http://www.w3.org/2000/svg" xmlns:xlink="http://www.w3.org/1999/xlink">
    <!-- Generator: Sketch 46.2 (44496) - http://www.bohemiancoding.com/sketch -->
    <title>graduation</title>
    <desc>Created with Sketch.</desc>
    <defs></defs>
    <g id="Page-1" stroke="none" stroke-width="1" fill="none" fill-rule="evenodd">
        <g id="01_istorines_asmenybes_desktop" transform="translate(-492.000000, -644.000000)" fill-rule="nonzero" fill="#000000">
            <g id="Group-12" transform="translate(208.000000, 616.000000)">
                <g id="Group-9" transform="translate(284.000000, 28.000000)">
                    <g id="graduation">
                        <path d="M13.5,4 C12.6591549,4 12,4.43938868 12,5 C12,5.56061132 12.6591549,6 13.5,6 C14.3412292,6 15,5.56061132 15,5 C15,4.43938868 14.3408451,4 13.5,4 Z M13.5,5.30531435 C13.0459667,5.30531435 12.7682458,5.10767628 12.7682458,5 C12.7682458,4.89232372 13.0459667,4.69468565 13.5,4.69468565 C13.9540333,4.69468565 14.2317542,4.89232372 14.2317542,5 C14.2317542,5.10767628 13.9540333,5.30531435 13.5,5.30531435 Z" id="Shape"></path>
                        <path d="M27.4819919,4.24095862 L14.1988472,0.0312206364 C14.0680327,-0.0103260089 13.9306555,-0.0103260089 13.8029035,0.0307375359 L0.518008769,4.24095862 C0.208253937,4.33902803 6.88027317e-07,4.64434756 6.88027317e-07,4.99990955 C-0.000436818798,5.35547154 0.20781643,5.66079107 0.517571262,5.75934358 L13.802466,9.96956467 C13.867217,9.98985489 13.9332806,10 13.9997816,10 C14.0662826,10 14.1323462,9.98985489 14.1966597,9.96956467 L27.4819919,5.75934358 C27.7917468,5.66079107 28,5.35595464 28,4.99990955 C28,4.64386446 27.7917468,4.33902803 27.4819919,4.24095862 Z M13.9997816,9.02655244 L1.29414588,4.99990955 L13.9997816,0.973749764 L26.7054173,4.99990955 L13.9997816,9.02655244 Z" id="Shape"></path>
                        <path d="M12.8719057,5.41099467 L8.31099325,6.99889162 C8.12391514,7.06871982 8,7.24542792 8,7.44303697 L8,11 L8.96432015,11.6775532 L8.96432015,7.770802 L14,5.88829071 L12.8719057,5.41099467 Z" id="Shape"></path>
                        <path d="M9.99239734,18.4546697 L9.21440251,13.9002278 C9.42308544,13.585877 9.5361706,13.2036446 9.5361706,12.8004556 C9.5361706,11.8077449 8.84716719,11 8.00038861,11 C7.15361003,11 6.46460662,11.8077449 6.46460662,12.8004556 C6.46460662,13.2041002 6.57730317,13.5863326 6.78559749,13.9002278 L6.00760266,18.4551253 C5.98467474,18.5890661 6.01420901,18.7280182 6.08804468,18.8332574 C6.16188036,18.9384966 6.27185665,19 6.38843929,19 L9.6111721,19 C9.72775474,19 9.83811964,18.938041 9.91195532,18.8328018 C9.98579099,18.7275626 10.0153253,18.5886105 9.99239734,18.4546697 Z M6.86254203,18.0888383 L7.58613162,13.856492 C7.61216841,13.704328 7.57019866,13.546697 7.47498951,13.43918 C7.3245979,13.2687927 7.24182422,13.042369 7.24182422,12.8004556 C7.24182422,12.309795 7.58224554,11.9111617 8.00038861,11.9111617 C8.41892029,11.9111617 8.75895299,12.3102506 8.75895299,12.8004556 C8.75895299,13.0419134 8.67617932,13.2683371 8.5253991,13.43918 C8.43018995,13.5471526 8.3882202,13.704328 8.41425698,13.856492 L9.13706936,18.0888383 L6.86254203,18.0888383 Z" id="Shape"></path>
                        <path d="M22.9845474,10.5860984 C22.8318692,9.40199693 22.4361343,8.26717895 21.8074335,7.21320324 C21.7060868,7.04287247 21.5003222,6.96289482 21.3077195,7.01650146 L13.9993475,9.08381559 L6.68922051,7.01650146 C6.49749529,6.96332713 6.29129198,7.04330478 6.18994524,7.21320324 C5.56475433,8.26199121 5.16945818,9.39205377 5.01546379,10.5722645 C4.9075361,11.3940888 5.37302912,12.1981884 6.14694965,12.5276099 L6.51021848,12.678919 L6.85155078,11.8821687 L6.49486291,11.7338858 C6.07806897,11.5562057 5.82755388,11.1243264 5.8854663,10.6825039 C6.01050448,9.72666295 6.31147358,8.80670384 6.78091517,7.94208062 L13.8001638,9.92725554 C13.9304668,9.96400203 14.0673507,9.96443434 14.1976536,9.92768785 L21.2169023,7.94208062 C21.6889763,8.81102696 21.9908229,9.7357415 22.1141061,10.695041 C22.1715798,11.1398896 21.9294006,11.5613934 21.5126067,11.7438289 C18.7797546,12.9387382 16.3698082,13.7156022 14.1471996,14.1198136 C14.0296199,14.1409968 13.9111627,14.1414291 13.7940216,14.1202459 C12.4111432,13.872099 10.8536501,13.4224949 9.03204118,12.7463596 L8.7227362,13.5552146 C10.5943604,14.2499394 12.2018688,14.7129451 13.6369561,14.9706028 C13.7470775,14.9904891 13.8576375,15 13.9681976,15 C14.0813901,15 14.1941438,14.9896245 14.3060201,14.9701705 C16.5975093,14.5534221 19.0710716,13.7566718 21.8684171,12.5340946 C22.6423376,12.1955946 23.0907201,11.4126782 22.9845474,10.5860984 Z" id="Shape"></path>
                    </g>
                </g>
            </g>
        </g>
    </g>
</svg>