<?xml version="1.0" encoding="UTF-8"?>
<svg width="28px" height="28px" viewBox="0 0 28 28" version="1.1" xmlns="http://www.w3.org/2000/svg" xmlns:xlink="http://www.w3.org/1999/xlink">
    <!-- Generator: Sketch 46.2 (44496) - http://www.bohemiancoding.com/sketch -->
    <title>Group 15 Copy</title>
    <desc>Created with Sketch.</desc>
    <defs></defs>
    <g id="Page-1" stroke="none" stroke-width="1" fill="none" fill-rule="evenodd">
        <g id="01_istorines_asmenybes_desktop" transform="translate(-1204.000000, -1948.000000)">
            <g id="footer" transform="translate(0.000000, 1930.000000)">
                <g id="Group-13" transform="translate(1162.000000, 18.000000)">
                    <g id="Group-15-Copy" transform="translate(42.000000, 0.000000)">
                        <rect id="Rectangle-7" stroke="#004498" x="0.5" y="0.5" width="27" height="27" rx="4"></rect>
                        <path d="M8.39332491,19.3156423 L11.0404733,19.3156423 L11.0404733,11.2835414 L8.39332491,11.2835414 L8.39332491,19.3156423 Z M9.7335949,7.41176471 C8.82823529,7.41176471 8.23529412,8.01078228 8.23529412,8.80082659 C8.23529412,9.56958081 8.81074334,10.1888422 9.69962431,10.1888422 L9.71557215,10.1888422 C10.6410053,10.1888422 11.2144037,9.56958081 11.2144037,8.80082659 C11.196381,8.01078228 10.6410294,7.41176471 9.7335949,7.41176471 L9.7335949,7.41176471 Z M20.5882353,14.710976 L20.5882353,19.3156666 L17.9395427,19.3156666 L17.9395427,15.0172125 C17.9395427,13.9365039 17.557639,13.2020327 16.5992486,13.2020327 C15.8662994,13.2020327 15.4339465,13.6992959 15.2409318,14.1778725 C15.1714465,14.3502126 15.1503355,14.5915569 15.1503355,14.8298355 L15.1503355,19.3151313 L12.5042727,19.3151313 C12.5042727,19.3151313 12.5397875,12.0377211 12.5042727,11.284028 L15.1508904,11.284028 L15.1508904,12.4223537 C15.1472955,12.431697 15.1395749,12.4394587 15.1359559,12.4498483 L15.1508904,12.4498483 L15.1508904,12.4223537 C15.5044692,11.8752595 16.1308743,11.0955805 17.5375896,11.0955805 C19.2834559,11.0956048 20.5882353,12.243298 20.5882353,14.710976 L20.5882353,14.710976 Z" id="Page-1" fill="#004597"></path>
                    </g>
                </g>
            </g>
        </g>
    </g>
</svg>