<?xml version="1.0" encoding="UTF-8"?>
<svg width="15px" height="19px" viewBox="0 0 15 19" version="1.1" xmlns="http://www.w3.org/2000/svg" xmlns:xlink="http://www.w3.org/1999/xlink">
    <!-- Generator: Sketch 46.2 (44496) - http://www.bohemiancoding.com/sketch -->
    <title>list</title>
    <desc>Created with Sketch.</desc>
    <defs></defs>
    <g id="Page-1" stroke="none" stroke-width="1" fill="none" fill-rule="evenodd">
        <g id="01_istorines_asmenybes_desktop" transform="translate(-1026.000000, -643.000000)" fill="#000000">
            <g id="Group-12" transform="translate(208.000000, 616.000000)">
                <g id="Group-11" transform="translate(818.000000, 27.000000)">
                    <g id="list">
                        <path d="M10.3448936,0 L0,0 L0,19 L15,19 L15,4.6189 L10.3448936,0 Z M10.5319149,1.0811 L13.9104255,4.43333333 L10.5319149,4.43333333 L10.5319149,1.0811 Z M0.638297872,18.3666667 L0.638297872,0.633333333 L9.89361702,0.633333333 L9.89361702,5.06666667 L14.3617021,5.06666667 L14.3617021,18.3666667 L0.638297872,18.3666667 Z" id="Shape" fill-rule="nonzero"></path>
                        <rect id="Rectangle-3" x="5" y="8" width="6" height="1" rx="0.5"></rect>
                        <rect id="Rectangle-3-Copy" x="5" y="11" width="6" height="1" rx="0.5"></rect>
                        <rect id="Rectangle-3-Copy-2" x="5" y="14" width="6" height="1" rx="0.5"></rect>
                        <rect id="Rectangle-3-Copy-5" x="3" y="8" width="1" height="1" rx="0.5"></rect>
                        <rect id="Rectangle-3-Copy-4" x="3" y="11" width="1" height="1" rx="0.5"></rect>
                        <rect id="Rectangle-3-Copy-3" x="3" y="14" width="1" height="1" rx="0.5"></rect>
                    </g>
                </g>
            </g>
        </g>
    </g>
</svg>