<?xml version="1.0" encoding="UTF-8"?>
<svg width="14px" height="16px" viewBox="0 0 14 16" version="1.1" xmlns="http://www.w3.org/2000/svg" xmlns:xlink="http://www.w3.org/1999/xlink">
    <!-- Generator: Sketch 46.2 (44496) - http://www.bohemiancoding.com/sketch -->
    <title>pin icon</title>
    <desc>Created with Sketch.</desc>
    <defs></defs>
    <g id="Page-1" stroke="none" stroke-width="1" fill="none" fill-rule="evenodd">
        <g id="01_istorines_asmenybes_desktop" transform="translate(-209.000000, -499.000000)">
            <g id="Group-7" transform="translate(209.000000, 497.000000)">
                <g id="Group-4">
                    <g id="Group-3" transform="translate(1.000000, 0.000000)">
                        <g id="Icons/Location" transform="translate(0.000000, 3.000000)">
                            <g id="pin-icon">
                                <path d="M6,4 C4.89742857,4 4,4.89742857 4,6 C4,7.10257143 4.89742857,8 6,8 C7.10257143,8 8,7.10257143 8,6 C8,4.89742857 7.10257143,4 6,4 Z M6,7 C5.4486,7 5,6.5514 5,6 C5,5.4486 5.4486,5 6,5 C6.5514,5 7,5.4486 7,6 C7,6.5514 6.5514,7 6,7 Z" id="Shape" fill="#000000" fill-rule="nonzero"></path>
                                <path d="M6,15 C10,11.209139 12,8.209139 12,6 C12,2.6862915 9.3137085,0 6,0 C2.6862915,0 0,2.6862915 0,6 C0,8.209139 2,11.209139 6,15 Z" id="Oval" stroke="#000000"></path>
                            </g>
                        </g>
                    </g>
                </g>
            </g>
        </g>
    </g>
</svg>