<?xml version="1.0" encoding="UTF-8"?>
<svg width="20px" height="20px" viewBox="0 0 20 20" version="1.1" xmlns="http://www.w3.org/2000/svg" xmlns:xlink="http://www.w3.org/1999/xlink">
    <!-- Generator: Sketch 46.2 (44496) - http://www.bohemiancoding.com/sketch -->
    <title>puzzle icon</title>
    <desc>Created with Sketch.</desc>
    <defs></defs>
    <g id="Page-1" stroke="none" stroke-width="1" fill="none" fill-rule="evenodd">
        <g id="01_istorines_asmenybes_desktop" transform="translate(-771.000000, -643.000000)" fill-rule="nonzero" fill="#000000">
            <g id="Group-12" transform="translate(208.000000, 616.000000)">
                <g id="Group-10" transform="translate(563.000000, 27.000000)">
                    <g id="basketball-ball-variant">
                        <path d="M18.957046,8.59256923 L16.6105768,6.24609995 C17.1086742,6.12383176 17.5820387,5.8719321 17.970782,5.48292441 C18.5392272,4.91474361 18.8247336,4.16704984 18.8245448,3.42249019 C18.8248091,2.67789277 18.5392272,1.93004797 17.9710464,1.36205596 C17.4028278,0.793346512 16.6549452,0.508104418 15.9103478,0.50833098 C15.1655616,0.508066657 14.4179056,0.793648595 13.8499136,1.36205596 C13.4609814,1.750535 13.2090062,2.22389943 13.0865493,2.72180812 L10.7405331,0.375829721 C10.4898418,0.125327198 10.1582677,-0.000263906479 9.83054511,4.16351186e-07 C9.502596,-0.000263906479 9.17060652,0.125364959 8.9202928,0.375829721 L5.46963377,3.8272062 C5.32995803,3.96688194 5.32995803,4.19280244 5.46963377,4.33247817 L5.88292139,4.74599236 C5.96754246,4.83061343 6.08814919,4.86731654 6.20562181,4.84394285 C6.31739261,4.82173973 6.43086262,4.81056265 6.5445592,4.81056265 C6.98930124,4.81105354 7.43045604,4.97908734 7.77079057,5.31844009 C8.10972796,5.65756628 8.277724,6.09879661 8.27821488,6.54350089 C8.27776176,6.98892262 8.1096902,7.43109696 7.77033744,7.77067627 C7.43094693,8.10980246 6.98930124,8.27810059 6.54406831,8.27832715 C6.09909971,8.27806283 5.65722746,8.10980246 5.3180635,7.77067627 C4.97844643,7.43079487 4.81041263,6.98964007 4.81018606,6.54467146 C4.80992174,6.43074832 4.82113658,6.31750487 4.8435285,6.20648928 C4.86686443,6.08924323 4.82997252,5.96791905 4.74580458,5.88352454 L4.33206382,5.47001035 C4.19242585,5.33056118 3.96620327,5.33056118 3.82652753,5.47027468 L0.375641936,8.92127355 C0.125139413,9.17151175 -0.000451691871,9.50327467 1.43298122e-06,9.83126154 C-0.000489452276,10.1589841 0.125139413,10.4910113 0.375830738,10.7412495 L2.72177138,13.0871902 C2.22367389,13.2097227 1.75053602,13.4616223 1.36156609,13.8508188 C0.793385289,14.4185087 0.507803351,15.1664291 0.508331997,15.9110265 C0.507841111,16.6553596 0.793120966,17.4034687 1.36183042,17.971725 C1.93001122,18.5401702 2.67793155,18.82545 3.42271777,18.8249591 C4.16705086,18.8254123 4.91470686,18.5396415 5.4824723,17.9714607 C5.87140447,17.5825285 6.12356845,17.1091641 6.24583664,16.6112554 L8.59177728,18.9574604 C8.84254413,19.2079629 9.17404272,19.333554 9.50202959,19.3332897 C9.8299787,19.333554 10.1615151,19.2079252 10.4117533,18.9576492 L13.8626766,15.5067258 C14.0021258,15.3670879 14.0021258,15.1408653 13.8626766,15.0011895 L13.449389,14.5876754 C13.3650322,14.5033186 13.2444255,14.4666155 13.1269151,14.4897249 C13.0151443,14.5121168 12.9014478,14.5230673 12.7875246,14.5230673 C12.342556,14.5226142 11.9011369,14.3548069 11.5617464,14.015643 C11.2223559,13.6760259 11.0543221,13.2346068 11.0540955,12.7894116 C11.0543598,12.344443 11.2226202,11.9025708 11.5617464,11.5629159 C11.9011369,11.2237897 12.3427826,11.0557182 12.7882421,11.055265 C13.2332107,11.0557182 13.6748941,11.2240163 14.0145112,11.5631425 C14.3536374,11.9027596 14.5217089,12.3441787 14.5219355,12.7891473 C14.5221998,12.9025795 14.5107207,13.0163139 14.4885553,13.1290287 C14.4656725,13.2462747 14.5021491,13.3659375 14.5867701,13.4505208 L15.0000577,13.864035 C15.0663273,13.930531 15.1585759,13.968669 15.2529392,13.968669 C15.3470759,13.968669 15.4390602,13.9305688 15.5058206,13.864035 L18.9569328,10.4126585 C19.2076996,10.162156 19.3330264,9.83039305 19.3325733,9.5026705 C19.3328753,9.17457035 19.2072842,8.84284519 18.957046,8.59256923 Z M18.4512454,9.90727323 L15.2532035,13.1050886 L15.2191059,13.070991 C15.2298298,12.9773451 15.2372308,12.8832085 15.2372308,12.7885431 C15.2374952,12.1631553 14.9974523,11.5344068 14.5200475,11.0570398 C14.0426427,10.5796728 13.4136676,10.3394033 12.7882798,10.3396676 C12.1626277,10.3394033 11.5336904,10.5794462 11.0562856,11.056851 C10.5786542,11.5344823 10.3386491,12.1634574 10.3389134,12.7891095 C10.3386491,13.4144974 10.578692,14.0435102 11.0562856,14.5208772 C11.5334638,14.998282 12.1624011,15.2382494 12.7876001,15.2377962 C12.8820011,15.2377962 12.9761378,15.2308861 13.0702368,15.2199356 L13.1043344,15.2540332 L9.90629248,18.4518486 C9.79523913,18.5629019 9.65057902,18.61773 9.50206735,18.6182209 C9.35332912,18.61773 9.20866901,18.5629397 9.09735134,18.4518486 L6.22797597,15.5822466 C6.12477678,15.4790475 5.97033673,15.4488014 5.83590969,15.5057441 C5.70174697,15.5622336 5.61569101,15.6942818 5.61757903,15.8398859 C5.61806992,15.8675643 5.61852304,15.8918442 5.61852304,15.9120838 C5.61806992,16.4764508 5.40615853,17.0360977 4.97667169,17.4660377 C4.5464674,17.8960154 3.98614076,18.1098148 3.42271777,18.1100036 C2.85835076,18.1097393 2.29753324,17.8964685 1.86729119,17.4662265 C1.43686034,17.0357957 1.22377838,16.4752047 1.22332525,15.9113286 C1.22377838,15.3474147 1.43738899,14.7868237 1.86710239,14.3568838 C2.29708011,13.926906 2.85642498,13.7155233 3.42105631,13.7150324 C3.44325943,13.7150324 3.46565135,13.7154855 3.48777894,13.7162407 C3.63436483,13.7205077 3.76856531,13.6352069 3.82671633,13.5005156 C3.88486736,13.3658242 3.85484783,13.2097227 3.75138433,13.1060704 L0.881555833,10.2364684 C0.770502484,10.1251508 0.715674377,9.98049066 0.715183492,9.83201675 C0.715636617,9.68327851 0.770464724,9.5386184 0.881291511,9.42756506 L4.07956,6.22952313 L4.11339332,6.26335645 C4.10266937,6.35749314 4.09526833,6.45166759 4.09526833,6.54599308 C4.09500401,7.17138089 4.33527346,7.80012939 4.81264049,8.27749642 C5.28981872,8.75490121 5.91875602,8.9951329 6.54440816,8.99467978 C7.1700603,8.9951329 7.79899759,8.75490121 8.27617582,8.27749642 C8.75403374,7.7996385 8.99403887,7.17017256 8.99354798,6.54452042 C8.99400111,5.9191326 8.75354285,5.290875 8.27662895,4.81396109 C7.79877103,4.33632973 7.17002254,4.09609804 6.54486128,4.09658893 C6.45046027,4.09658893 6.35632358,4.10372564 6.26222465,4.11471392 L6.22812701,4.08061628 L9.4263955,0.882347785 C9.53744885,0.771520998 9.68210896,0.716466329 9.83084719,0.715975444 C9.9791323,0.716428569 10.1239812,0.771256676 10.2352989,0.882574348 L13.1049008,3.75217628 C13.2087797,3.85609291 13.3670713,3.88588587 13.5012718,3.82679084 C13.6356988,3.76792237 13.7209996,3.63160731 13.7150712,3.48479485 C13.7141272,3.46549929 13.7136741,3.4445045 13.7136741,3.42188602 C13.7143915,2.85774558 13.9260386,2.29813639 14.3555254,1.86815866 C14.7857297,1.43818094 15.3463207,1.22438153 15.9101968,1.22419273 C16.4738841,1.22445705 17.0347016,1.43772781 17.4648681,1.86815866 C17.8950347,2.29858951 18.1086453,2.85895391 18.1088341,3.42283003 C18.1085698,3.98651735 17.8950347,4.54733487 17.4648681,4.9775014 C17.0346639,5.407026 16.4752812,5.61840874 15.9109142,5.61886187 C15.8885223,5.61886187 15.8663192,5.61859755 15.8444181,5.61791786 C15.6978323,5.61365093 15.5636318,5.69895169 15.5054808,5.83364305 C15.4473297,5.96833441 15.4771227,6.12443592 15.5808128,6.22808823 L18.4506413,9.09791673 C18.5616946,9.20897007 18.6167493,9.35363018 18.6172402,9.50236842 C18.6173912,9.65129545 18.5623365,9.79595556 18.4512454,9.90727323 Z" id="puzzle-icon"></path>
                    </g>
                </g>
            </g>
        </g>
    </g>
</svg>